<svg version="1.1" id="Layer_1" xmlns="http://www.w3.org/2000/svg" xmlns:xlink="http://www.w3.org/1999/xlink" x="0px" y="0px"
	 width="100%" viewBox="0 0 1024 1024" enable-background="new 0 0 1024 1024" xml:space="preserve">
<path fill="#000000" opacity="1.000000" stroke="none" 
	d="
M389.203949,697.285156 
	C356.693420,719.501221 314.989105,713.269653 292.859070,682.447449 
	C277.179382,660.609131 275.283417,636.615479 286.493073,611.938354 
	C303.177612,575.208679 323.289001,540.256958 342.340607,504.758759 
	C350.967438,488.684753 350.723846,488.997772 342.066315,472.718048 
	C322.209473,435.379211 323.891113,398.934387 347.989838,363.899109 
	C350.329620,360.497437 353.416718,357.606842 356.198792,354.516724 
	C356.483185,354.200897 357.057129,354.145752 358.494324,354.100372 
	C355.670776,360.241394 358.175079,366.764954 356.143738,372.891663 
	C354.628571,377.461548 354.742615,382.110443 355.081207,386.747620 
	C355.447449,391.762451 359.172577,394.142059 363.417572,391.636719 
	C368.381104,388.707306 373.278381,388.489288 378.731842,389.280945 
	C383.740387,390.008026 388.141449,387.914734 391.962494,384.642273 
	C393.510773,383.316284 394.694183,381.102875 397.617584,382.155334 
	C398.228668,385.445282 396.874725,388.508636 395.376373,391.043579 
	C389.398956,401.156372 390.868866,409.692749 398.571747,418.514618 
	C405.434631,426.374451 410.999115,435.377106 417.027039,443.952454 
	C419.448914,447.397888 421.980896,448.843231 426.596283,447.807861 
	C441.939178,444.365753 442.417023,444.738037 451.340210,457.613800 
	C454.509094,462.186310 456.510468,467.116943 457.159576,472.810059 
	C457.965851,479.881317 461.861542,485.860199 465.622528,491.757141 
	C466.467682,493.082184 467.856842,493.757111 469.437531,493.853241 
	C477.908234,494.368500 485.555450,498.865662 494.058746,498.619110 
	C494.968567,501.307068 492.962524,502.127319 491.703094,503.290222 
	C482.682861,511.618835 471.893402,516.619934 460.221466,519.949036 
	C458.941681,520.314087 457.703186,520.884338 456.402374,521.105225 
	C449.176117,522.331970 446.860382,527.350586 445.212830,533.857544 
	C434.885681,574.644104 427.259369,616.078979 415.370087,656.497986 
	C410.604523,672.699097 402.576660,686.388855 389.203949,697.285156 
M355.714020,624.496399 
	C352.899536,623.247803 349.913605,623.103943 346.911835,623.222046 
	C337.396606,623.596252 329.124634,632.362488 329.169189,641.975098 
	C329.212921,651.421082 337.695190,660.268066 347.124878,660.702942 
	C356.930206,661.155090 365.801483,653.546631 366.859436,644.071472 
	C367.857483,635.132874 363.869202,629.088196 355.714020,624.496399 
z"/>
<path fill="#000000" opacity="1.000000" stroke="none" 
	d="
M825.922607,629.058472 
	C801.205383,638.874573 775.709045,642.031494 749.739441,642.272583 
	C732.415955,642.433472 715.088806,642.218384 697.765991,642.409790 
	C693.485474,642.457092 691.895386,641.130737 691.900330,636.721497 
	C692.002136,545.266235 692.012878,453.810883 691.951965,362.355560 
	C691.948792,357.620819 693.229736,355.561035 698.477112,355.649597 
	C718.128662,355.981171 737.796570,355.512756 757.442017,356.001709 
	C793.934082,356.909973 828.273621,365.281006 858.691223,386.576294 
	C886.734741,406.209503 903.494019,432.891510 909.385498,466.565491 
	C913.539612,490.309143 913.132141,513.963684 907.861511,537.433289 
	C899.116089,576.375793 875.853943,604.035583 840.791687,622.231018 
	C836.069519,624.681641 831.126831,626.707397 825.922607,629.058472 
M872.806763,526.380432 
	C877.053101,504.799286 876.596497,483.324493 870.485413,462.182709 
	C864.019897,439.814606 851.016052,422.318054 830.593384,410.566864 
	C811.661926,399.673767 791.250061,393.774200 769.646484,391.248840 
	C758.357971,389.929291 747.034607,390.258545 735.741943,389.521454 
	C729.996094,389.146362 729.088318,390.285645 729.023315,396.014801 
	C728.985474,399.346375 729.022095,402.678741 729.021606,406.010773 
	C729.012268,471.319550 728.998352,536.628296 728.998596,601.937073 
	C728.998596,608.625183 729.037842,608.662598 735.575012,608.619690 
	C754.751221,608.493713 773.847961,607.468140 792.549561,602.789856 
	C833.364746,592.579712 863.119385,570.594177 872.806763,526.380432 
z"/>
<path fill="#000000" opacity="1.000000" stroke="none" 
	d="
M234.569321,371.330261 
	C252.313354,381.561737 261.267944,397.168549 264.794922,416.514648 
	C268.779144,438.368805 265.569244,458.563995 251.851654,476.567322 
	C248.077301,481.520874 242.955322,484.933716 237.398270,489.148926 
	C246.546722,491.727570 254.869019,494.675964 261.833069,500.208984 
	C286.369019,519.703064 296.398346,545.037476 291.888763,576.067078 
	C287.036530,609.454163 264.757172,626.455261 234.987473,636.252869 
	C220.766907,640.933105 206.012741,642.236511 191.138306,642.301636 
	C171.478439,642.387695 151.816589,642.209717 132.158707,642.426819 
	C127.432518,642.479004 125.760429,641.059509 125.766624,636.209656 
	C125.883415,544.739807 125.884903,453.269653 125.809746,361.799713 
	C125.806137,357.407898 126.962654,355.575012 131.735397,355.642059 
	C151.544159,355.920349 171.383499,355.219940 191.108246,357.716522 
	C206.271301,359.635712 220.726440,363.917114 234.569321,371.330261 
M163.081772,571.500000 
	C163.085617,582.322632 163.081253,593.145325 163.099686,603.967957 
	C163.103760,606.360596 163.061615,608.936279 166.490448,608.891296 
	C184.909531,608.649597 203.477737,610.596130 221.555618,605.225586 
	C250.051987,596.760010 258.892273,575.922241 255.100342,550.332642 
	C252.385544,532.011902 239.458801,522.782227 222.811798,517.322205 
	C205.687378,511.705658 188.079819,511.975250 170.450195,511.912659 
	C163.238480,511.887054 163.114120,512.015015 163.107376,519.050659 
	C163.090927,536.200439 163.089615,553.350220 163.081772,571.500000 
M175.490067,389.117767 
	C172.825546,389.126984 170.157501,389.226227 167.497421,389.122223 
	C164.323334,388.998108 163.041885,390.363953 163.048859,393.566162 
	C163.109726,421.543854 163.103119,449.521729 163.064163,477.499481 
	C163.059845,480.602814 164.229309,482.013977 167.477341,482.024658 
	C177.647736,482.058197 187.785339,481.884460 197.768951,479.619019 
	C213.918472,475.954468 226.684891,468.452240 230.354660,450.744202 
	C232.195953,441.859253 232.378189,432.872955 231.001678,423.934418 
	C228.215515,405.841949 219.489807,396.606476 201.653931,392.315552 
	C193.371246,390.322937 185.006500,389.081757 175.490067,389.117767 
z"/>
<path fill="#000000" opacity="1.000000" stroke="none" 
	d="
M586.337646,488.000061 
	C586.336670,526.487732 586.415466,564.475769 586.233337,602.462524 
	C586.210388,607.241272 587.524780,608.748901 592.375793,608.705444 
	C616.532593,608.488953 640.692444,608.607666 664.851196,608.615906 
	C672.868713,608.618652 672.889526,608.628662 672.947021,616.903503 
	C672.994385,623.734253 672.933350,630.566162 673.022278,637.396179 
	C673.067200,640.847229 671.911194,642.414551 668.078613,642.402893 
	C630.424561,642.288086 592.769470,642.234070 555.116272,642.448059 
	C549.318909,642.480957 549.676086,639.258911 549.677612,635.414001 
	C549.709045,556.273071 549.708130,477.132172 549.710938,397.991272 
	C549.711365,385.828552 549.840271,373.663239 549.615784,361.504547 
	C549.536804,357.223175 550.830200,355.516327 555.289978,355.659821 
	C563.778625,355.932922 572.288025,355.942688 580.776672,355.675720 
	C585.263245,355.534607 586.417908,357.292511 586.405701,361.541382 
	C586.285095,403.527313 586.335449,445.513763 586.337646,488.000061 
z"/>
<path fill="#000000" opacity="1.000000" stroke="none" 
	d="
M528.888916,397.397888 
	C538.677185,432.579193 525.558533,471.952271 505.802216,489.068634 
	C505.644470,486.598877 507.103333,485.142883 508.211609,483.727051 
	C516.031433,473.737244 518.602844,461.956818 519.766785,449.757996 
	C520.439514,442.707092 518.896118,436.190491 513.600159,430.975464 
	C512.662781,430.052399 511.842255,428.939728 511.220367,427.779266 
	C508.370483,422.461151 504.592804,419.999481 498.197845,421.872040 
	C492.696198,423.483032 487.875092,418.923920 482.228607,418.997620 
	C480.099457,419.025421 481.154175,415.536072 481.792664,413.804474 
	C485.647186,403.351135 489.573944,392.922424 493.646881,382.552338 
	C496.258118,375.903839 498.890991,369.237946 502.021912,362.827850 
	C504.458710,357.838806 506.242798,357.787201 510.396698,361.352753 
	C513.229980,363.784760 515.344421,366.770752 517.011719,370.045868 
	C521.466187,378.795929 525.909607,387.558899 528.888916,397.397888 
z"/>
<path fill="#000000" opacity="1.000000" stroke="none" 
	d="
M618.642883,674.062744 
	C624.359314,658.126770 639.195862,651.637024 652.442627,658.309326 
	C662.917969,663.585693 661.962891,679.963989 656.282227,685.238953 
	C656.038269,685.465454 655.808716,685.709045 655.553101,685.921326 
	C652.574097,688.395935 636.111145,689.300842 632.828857,687.174255 
	C629.304565,684.890991 628.399719,678.232056 630.838440,672.976196 
	C632.856079,668.627991 636.383301,666.419678 640.982056,665.871948 
	C646.897949,665.167419 648.850525,667.086670 648.316589,672.895630 
	C648.134033,674.881775 647.804077,676.854004 647.599304,678.838562 
	C647.417969,680.595703 646.614807,682.753906 649.133911,683.429443 
	C651.160156,683.972778 652.601501,682.621033 653.693359,681.046021 
	C659.124695,673.211182 654.381226,662.061829 644.955811,660.473083 
	C630.989929,658.119019 619.082642,672.534302 623.953735,685.898926 
	C626.200256,692.062378 633.666565,695.095520 641.666382,693.441040 
	C643.659485,693.028931 646.905518,689.819092 647.757812,693.996765 
	C648.395386,697.121765 644.489502,697.165466 642.283325,697.741760 
	C626.594177,701.840149 615.086426,690.498718 618.642883,674.062744 
M642.794495,678.367859 
	C642.937561,677.725708 643.127563,677.089783 643.215088,676.440186 
	C643.487122,674.421143 644.903564,671.855042 642.381226,670.695068 
	C639.791382,669.504028 637.612671,671.311218 636.105896,673.392456 
	C635.266357,674.552063 634.631531,676.011597 634.390320,677.419189 
	C633.963013,679.913635 633.878845,682.759094 637.000427,683.510620 
	C640.277893,684.299561 642.396790,682.708557 642.794495,678.367859 
z"/>
<path fill="#000000" opacity="1.000000" stroke="none" 
	d="
M449.017822,690.669495 
	C444.079132,692.764587 439.502319,693.155701 435.649261,689.472473 
	C430.747375,684.786621 430.976013,678.639587 432.151001,672.697754 
	C433.491913,665.916809 437.849609,662.022705 444.552795,661.813782 
	C448.887970,661.678589 450.132416,659.900818 449.693451,656.051392 
	C449.656067,655.723877 449.667999,655.385742 449.697845,655.056274 
	C449.880798,653.038269 449.076813,650.190430 452.494110,650.395813 
	C455.606598,650.582825 455.146057,653.271301 455.176605,655.370544 
	C455.229736,659.021973 455.187195,662.674927 455.181641,666.327209 
	C455.171600,672.967834 455.201538,679.608826 455.134644,686.248901 
	C455.079834,691.688721 454.696136,691.936951 449.017822,690.669495 
M441.962128,667.408936 
	C437.394806,670.773315 435.614655,677.311096 437.820587,682.878357 
	C438.949432,685.727417 440.914520,687.862427 444.178192,687.352600 
	C447.405304,686.848450 449.558594,684.804504 449.651825,681.262512 
	C449.730377,678.280640 449.725555,675.295105 449.687958,672.312073 
	C449.616241,666.617859 448.565704,665.863403 441.962128,667.408936 
z"/>
<path fill="#000000" opacity="1.000000" stroke="none" 
	d="
M742.493774,661.967896 
	C747.591003,662.354126 749.584778,660.409424 749.038696,655.578064 
	C748.818970,653.634094 748.367676,650.619385 751.571167,650.601807 
	C755.229065,650.581848 754.221619,653.797974 754.242493,655.898743 
	C754.343323,666.040466 754.329956,676.183777 754.289307,686.326233 
	C754.277283,689.333923 754.784302,693.117432 749.603821,690.372192 
	C748.238159,689.648438 747.156067,691.089661 745.934021,691.487671 
	C740.218201,693.349182 735.287354,691.252258 732.633850,685.915588 
	C728.918213,678.443237 730.893555,663.990051 742.493774,661.967896 
M742.651489,687.452637 
	C747.099609,687.144226 749.154358,684.775330 748.985413,680.310730 
	C748.872803,677.335327 749.026428,674.350586 748.944458,671.373169 
	C748.815369,666.683167 747.184753,665.579956 742.656372,666.812378 
	C737.958069,668.091125 736.628418,671.818481 736.400452,675.918884 
	C736.141174,680.581848 736.186951,685.427856 742.651489,687.452637 
z"/>
<path fill="#000000" opacity="1.000000" stroke="none" 
	d="
M589.599121,685.051880 
	C589.583984,678.245422 589.606201,671.924438 589.535461,665.604553 
	C589.502808,662.687317 590.085999,660.796021 593.509888,662.603271 
	C594.311279,663.026184 595.038391,662.958801 595.887939,662.758850 
	C608.148376,659.873840 614.361938,665.373962 612.787170,677.682373 
	C611.646057,686.601440 607.689331,690.622559 598.657471,691.437378 
	C595.867126,691.689148 594.761292,692.670227 594.897644,695.370911 
	C594.955933,696.524658 594.829102,697.697571 594.686584,698.849426 
	C594.467346,700.622009 593.462219,701.454224 591.622986,701.311340 
	C589.799744,701.169739 589.553162,699.945923 589.555969,698.513367 
	C589.564453,694.188232 589.583557,689.863037 589.599121,685.051880 
M607.677185,677.191406 
	C607.751160,674.861511 607.680603,672.566589 606.729004,670.362915 
	C605.278015,667.002625 602.794373,665.536438 599.195740,666.221802 
	C595.736206,666.880676 594.894653,669.399292 594.913818,672.517517 
	C594.936218,676.162292 594.929504,679.809509 594.815918,683.451965 
	C594.742249,685.812439 595.809265,686.638916 598.083679,686.728271 
	C603.172424,686.928101 605.962891,684.466431 607.677185,677.191406 
z"/>
<path fill="#000000" opacity="1.000000" stroke="none" 
	d="
M468.653381,678.827759 
	C466.429810,681.882446 467.391541,684.890259 470.812653,686.459595 
	C473.739014,687.801941 476.643066,687.432312 479.524109,686.222168 
	C481.170746,685.530640 482.530701,685.896667 483.152374,687.657776 
	C483.749512,689.349304 482.437469,689.972534 481.241028,690.647339 
	C473.428741,695.054199 463.591461,690.676514 461.621826,681.942200 
	C460.437775,676.691528 460.885498,671.643555 463.568481,666.955872 
	C466.439636,661.939453 472.935852,659.860107 478.386475,662.017456 
	C483.185791,663.917053 485.900757,669.811646 484.731750,675.385498 
	C484.269379,677.590149 483.126404,678.418335 480.963531,678.444580 
	C476.972778,678.492920 472.983826,678.692932 468.653381,678.827759 
M476.058746,673.845825 
	C479.823578,672.872375 480.590302,671.014526 478.328979,668.260315 
	C476.521790,666.059204 474.072052,665.718811 471.594299,666.514587 
	C468.428467,667.531311 466.927612,669.847290 467.211639,673.263184 
	C469.964539,674.326599 472.618195,673.731323 476.058746,673.845825 
z"/>
<path fill="#000000" opacity="1.000000" stroke="none" 
	d="
M522.077148,684.965149 
	C525.352112,687.684875 528.703430,687.710022 532.203064,686.526489 
	C533.842041,685.972229 535.597595,685.343384 536.287842,687.652649 
	C536.948914,689.864746 535.094360,690.480286 533.567322,691.104126 
	C525.446045,694.421570 517.022095,690.555847 515.174744,682.337402 
	C514.037964,677.280212 513.985046,672.089172 516.692932,667.317322 
	C519.699036,662.019775 526.278137,659.759583 531.752991,662.101929 
	C536.414673,664.096375 539.439758,670.711731 538.207581,675.914551 
	C537.785767,677.695312 536.806702,678.427612 535.092896,678.461365 
	C531.946045,678.523376 528.799744,678.629700 525.652710,678.656128 
	C523.874329,678.671021 521.698730,677.806213 520.609863,679.680054 
	C519.602905,681.412964 520.677429,683.198730 522.077148,684.965149 
M520.890625,673.089783 
	C523.366333,674.537292 526.069031,673.747559 528.669006,673.808533 
	C530.236877,673.845276 532.253906,674.144043 532.628113,671.833679 
	C532.981445,669.652100 532.017944,667.954651 530.082764,666.881836 
	C525.867554,664.544800 521.628052,667.017456 520.890625,673.089783 
z"/>
<path fill="#000000" opacity="1.000000" stroke="none" 
	d="
M582.976746,671.656494 
	C583.410767,676.079712 583.552795,680.072388 582.109924,683.925903 
	C579.938599,689.724854 575.256958,692.663513 569.247009,692.037292 
	C563.435669,691.431702 559.711487,687.852905 558.827576,681.689026 
	C558.476318,679.239685 558.388428,676.700073 558.586121,674.234009 
	C559.250366,665.945618 562.800110,661.822388 569.611633,661.098572 
	C576.208374,660.397461 580.250183,663.483887 582.976746,671.656494 
M569.826294,665.834595 
	C563.663269,668.360718 561.506592,681.729675 566.739563,685.667542 
	C569.590149,687.812561 573.059082,687.811401 575.430298,685.267273 
	C578.965637,681.474182 577.991943,676.530579 577.302246,671.933838 
	C576.742004,668.200134 574.392517,666.059753 569.826294,665.834595 
z"/>
<path fill="#000000" opacity="1.000000" stroke="none" 
	d="
M499.411682,682.983643 
	C502.321136,677.602905 503.540314,671.549194 505.674530,665.816833 
	C507.029480,662.177307 507.026917,662.176331 510.825745,662.252686 
	C511.713501,663.064941 511.553467,664.099121 511.242584,665.032288 
	C508.619507,672.906860 506.061096,680.805969 503.244232,688.611450 
	C501.958405,692.174500 497.763458,692.950623 496.515900,689.839478 
	C492.964386,680.982361 489.997101,671.890991 486.777527,662.828857 
	C490.774841,660.892578 492.389526,662.266113 493.384033,665.365845 
	C495.260254,671.213745 497.273071,677.017944 499.411682,682.983643 
z"/>
<path fill="#000000" opacity="1.000000" stroke="none" 
	d="
M719.968262,667.102417 
	C718.817444,672.198669 719.526367,677.025940 719.298645,681.827148 
	C719.131348,685.355103 720.657532,687.135803 724.332642,686.889893 
	C725.994934,686.778625 727.976013,686.641968 727.995422,689.069397 
	C728.013916,691.372986 725.901917,691.350952 724.359985,691.667053 
	C718.408508,692.887573 714.265259,689.676636 713.974854,683.501953 
	C713.787659,679.520508 713.909363,675.524597 713.890137,671.535156 
	C713.878967,669.217834 714.099670,666.977844 711.238464,665.744873 
	C709.452454,664.975159 709.545410,663.079041 711.330139,662.329041 
	C713.903931,661.247620 714.666260,659.383850 714.879150,656.897400 
	C715.002258,655.459229 715.738647,654.232117 717.397278,654.417908 
	C719.128662,654.611816 719.252319,656.119019 719.246338,657.467468 
	C719.235779,659.843262 719.520996,661.780273 722.654968,661.750427 
	C724.357239,661.734131 726.842529,661.327271 726.835083,663.996948 
	C726.827515,666.704956 724.307251,665.940125 722.634766,666.234070 
	C721.828552,666.375793 721.037170,666.601746 719.968262,667.102417 
z"/>
<path fill="#000000" opacity="1.000000" stroke="none" 
	d="
M550.242920,681.587891 
	C550.227417,684.283630 550.320557,686.451843 553.182922,687.026245 
	C554.693726,687.329407 555.572144,688.208130 555.278625,689.841431 
	C554.983582,691.483154 553.610107,691.767456 552.280334,691.974121 
	C548.340576,692.586304 545.085266,689.805359 544.988770,685.083313 
	C544.778137,674.774414 544.889648,664.458679 544.906006,654.145691 
	C544.908691,652.451111 545.016785,650.611145 547.324280,650.491272 
	C549.917053,650.356506 550.196838,652.239929 550.201843,654.194519 
	C550.224854,663.177063 550.228943,672.159546 550.242920,681.587891 
z"/>
<path fill="#000000" opacity="1.000000" stroke="none" 
	d="
M689.279419,676.000366 
	C689.271912,680.319519 689.270081,684.142578 689.255310,687.965576 
	C689.248413,689.749390 689.012512,691.384827 686.641724,691.328796 
	C684.675049,691.282288 684.085815,689.928101 684.076904,688.310669 
	C684.033936,680.500427 684.017944,672.689453 684.100220,664.879761 
	C684.116516,663.331543 684.725830,661.861206 686.738586,661.945496 
	C688.696350,662.027527 689.190430,663.401917 689.214417,665.033508 
	C689.265808,668.523315 689.261292,672.013977 689.279419,676.000366 
z"/>
<path fill="#000000" opacity="1.000000" stroke="none" 
	d="
M674.073242,687.674744 
	C673.868652,689.968933 673.289551,691.442749 671.038757,691.184509 
	C668.711121,690.917419 668.771545,689.064087 668.760254,687.422668 
	C668.710999,680.283875 668.705261,673.144531 668.738342,666.005615 
	C668.746704,664.202637 668.578430,662.009094 671.238770,661.978943 
	C674.169678,661.945618 674.043823,664.346985 674.064087,666.291870 
	C674.136658,673.264221 674.096069,680.237732 674.073242,687.674744 
z"/>
<path fill="#000000" opacity="1.000000" stroke="none" 
	d="
M699.635010,675.007568 
	C699.647156,671.347046 699.625305,668.182434 699.686462,665.019531 
	C699.716919,663.443848 699.996216,661.910461 702.115601,662.010803 
	C703.862000,662.093445 704.281616,663.390137 704.287354,664.797913 
	C704.320068,672.790466 704.316528,680.783264 704.285400,688.775818 
	C704.279541,690.288330 703.629822,691.344543 701.881348,691.254944 
	C700.100342,691.163635 699.727417,689.919800 699.710327,688.492676 
	C699.658447,684.163513 699.656555,679.833801 699.635010,675.007568 
z"/>
<path fill="#000000" opacity="1.000000" stroke="none" 
	d="
M671.655029,650.604370 
	C674.250488,651.498413 675.057617,653.113037 674.113770,655.294373 
	C673.472839,656.775818 672.070007,657.406494 670.452881,657.097839 
	C669.031006,656.826477 668.071472,655.829407 667.948914,654.423157 
	C667.745728,652.093506 668.876404,650.706543 671.655029,650.604370 
z"/>
<path fill="#000000" opacity="1.000000" stroke="none" 
	d="
M688.775879,656.159302 
	C686.455505,657.818970 684.743164,657.425354 683.456543,655.357422 
	C682.644348,654.052002 682.972839,652.786804 683.968750,651.712646 
	C684.973694,650.628784 686.305542,650.261841 687.604370,650.890808 
	C689.829956,651.968689 690.112854,653.776367 688.775879,656.159302 
z"/>
<path fill="#000000" opacity="1.000000" stroke="none" 
	d="
M704.842529,652.663574 
	C705.446350,655.510620 704.213562,656.826477 701.865723,657.120605 
	C700.386902,657.305847 699.291687,656.444397 698.715210,655.126160 
	C698.129456,653.786621 698.333618,652.418579 699.503235,651.498230 
	C701.450684,649.966064 703.204651,650.467834 704.842529,652.663574 
z"/>
</svg>